# xmcd CD database file
# Copyright (C) 1993-1998 Ti Kan
#
# Track frame offsets:
#	150
#	16215
#	31374
#	46372
#	64411
#	82709
#	96149
#	115568
#	131903
#	147411
#	164340
#	185440
#	201763
#	219697
#
# Disc length: 3164 seconds
#
# Revision: 1
# Processed by: cddbd v1.4b41PL1 Copyright (c) Steve Scherf et al.
# Submitted via: CDValet v3.31 - Copyright (c) 1997 Greg Leichner
#
DISCID=c30c5a0e
DTITLE=Various Artist - Hot Hits Country Vol. 76
DYEAR=1900
DGENRE=
TTITLE0=Your're Still The One - Shania Twain
TTITLE1=She's Got That Look In Her Eyes - Alabama
TTITLE2=This Kiss - Faith Hill
TTITLE3=Dream Walkin - Toby Keith
TTITLE4=To Have You Back Again - Patty Loveless
TTITLE5=It Would Be You - Gary Allan
TTITLE6=Leaving October - Sons Of The Desert
TTITLE7=I'm From The Country - Tracy Byrd
TTITLE8=Say When - Lonestar
TTITLE9=All That Matters Anymore - Lee Roy Parnell
TTITLE10=Connected At The Heart - Ricochet
TTITLE11=Woman To Woman - The Lynns
TTITLE12=One Small Miracle - Bryan White
TTITLE13=To Be With You - The Mavericks
EXTD=
EXTT0=
EXTT1=
EXTT2=
EXTT3=
EXTT4=
EXTT5=
EXTT6=
EXTT7=
EXTT8=
EXTT9=
EXTT10=
EXTT11=
EXTT12=
EXTT13=
PLAYORDER=
